<mxfile host="app.diagrams.net" modified="2023-12-18T08:53:10.105Z" agent="Mozilla/5.0 (Macintosh; Intel Mac OS X 10.15; rv:121.0) Gecko/20100101 Firefox/121.0" etag="1Fpzg3QRMIpfFMVxD5hP" version="22.1.11" type="device">
  <diagram name="Страница — 1" id="kJ1ikwo02adYf8E-H_QR">
    <mxGraphModel dx="1194" dy="792" grid="1" gridSize="10" guides="1" tooltips="1" connect="1" arrows="1" fold="1" page="1" pageScale="1" pageWidth="827" pageHeight="1169" math="0" shadow="0">
      <root>
        <mxCell id="0" />
        <mxCell id="1" parent="0" />
        <mxCell id="Rh83Ei1Cwxpf1ExTQ6_g-6" value="" style="edgeStyle=orthogonalEdgeStyle;rounded=0;orthogonalLoop=1;jettySize=auto;html=1;" edge="1" parent="1" source="Rh83Ei1Cwxpf1ExTQ6_g-1" target="Rh83Ei1Cwxpf1ExTQ6_g-5">
          <mxGeometry relative="1" as="geometry" />
        </mxCell>
        <mxCell id="Rh83Ei1Cwxpf1ExTQ6_g-1" value="Начало" style="strokeWidth=2;html=1;shape=mxgraph.flowchart.terminator;whiteSpace=wrap;" vertex="1" parent="1">
          <mxGeometry x="230" y="70" width="100" height="60" as="geometry" />
        </mxCell>
        <mxCell id="Rh83Ei1Cwxpf1ExTQ6_g-2" value="Конец" style="strokeWidth=2;html=1;shape=mxgraph.flowchart.terminator;whiteSpace=wrap;" vertex="1" parent="1">
          <mxGeometry x="225" y="1380" width="100" height="60" as="geometry" />
        </mxCell>
        <mxCell id="Rh83Ei1Cwxpf1ExTQ6_g-9" value="" style="edgeStyle=orthogonalEdgeStyle;rounded=0;orthogonalLoop=1;jettySize=auto;html=1;" edge="1" parent="1" source="Rh83Ei1Cwxpf1ExTQ6_g-3" target="Rh83Ei1Cwxpf1ExTQ6_g-8">
          <mxGeometry relative="1" as="geometry" />
        </mxCell>
        <mxCell id="Rh83Ei1Cwxpf1ExTQ6_g-3" value="Цикл А: пока current != Null" style="strokeWidth=2;html=1;shape=mxgraph.flowchart.loop_limit;whiteSpace=wrap;" vertex="1" parent="1">
          <mxGeometry x="185" y="250" width="190" height="50" as="geometry" />
        </mxCell>
        <mxCell id="Rh83Ei1Cwxpf1ExTQ6_g-7" value="" style="edgeStyle=orthogonalEdgeStyle;rounded=0;orthogonalLoop=1;jettySize=auto;html=1;" edge="1" parent="1" source="Rh83Ei1Cwxpf1ExTQ6_g-5" target="Rh83Ei1Cwxpf1ExTQ6_g-3">
          <mxGeometry relative="1" as="geometry" />
        </mxCell>
        <mxCell id="Rh83Ei1Cwxpf1ExTQ6_g-5" value="Создание указателя current указывающего на первый элемент списка" style="whiteSpace=wrap;html=1;strokeWidth=2;" vertex="1" parent="1">
          <mxGeometry x="190" y="160" width="180" height="60" as="geometry" />
        </mxCell>
        <mxCell id="Rh83Ei1Cwxpf1ExTQ6_g-11" value="" style="edgeStyle=orthogonalEdgeStyle;rounded=0;orthogonalLoop=1;jettySize=auto;html=1;" edge="1" parent="1" source="Rh83Ei1Cwxpf1ExTQ6_g-8" target="Rh83Ei1Cwxpf1ExTQ6_g-10">
          <mxGeometry relative="1" as="geometry" />
        </mxCell>
        <mxCell id="Rh83Ei1Cwxpf1ExTQ6_g-13" value="" style="edgeStyle=orthogonalEdgeStyle;rounded=0;orthogonalLoop=1;jettySize=auto;html=1;" edge="1" parent="1" source="Rh83Ei1Cwxpf1ExTQ6_g-8" target="Rh83Ei1Cwxpf1ExTQ6_g-12">
          <mxGeometry relative="1" as="geometry" />
        </mxCell>
        <mxCell id="Rh83Ei1Cwxpf1ExTQ6_g-8" value="ФИО = введенному значению" style="rhombus;whiteSpace=wrap;html=1;strokeWidth=2;" vertex="1" parent="1">
          <mxGeometry x="200" y="320" width="160" height="80" as="geometry" />
        </mxCell>
        <mxCell id="Rh83Ei1Cwxpf1ExTQ6_g-16" style="edgeStyle=orthogonalEdgeStyle;rounded=0;orthogonalLoop=1;jettySize=auto;html=1;exitX=0.5;exitY=1;exitDx=0;exitDy=0;" edge="1" parent="1" source="Rh83Ei1Cwxpf1ExTQ6_g-10">
          <mxGeometry relative="1" as="geometry">
            <mxPoint x="280" y="230" as="targetPoint" />
            <Array as="points">
              <mxPoint x="280" y="500" />
              <mxPoint x="120" y="500" />
              <mxPoint x="120" y="230" />
            </Array>
          </mxGeometry>
        </mxCell>
        <mxCell id="Rh83Ei1Cwxpf1ExTQ6_g-10" value="current = current в следующем элементе" style="whiteSpace=wrap;html=1;strokeWidth=2;" vertex="1" parent="1">
          <mxGeometry x="210" y="430" width="140" height="50" as="geometry" />
        </mxCell>
        <mxCell id="Rh83Ei1Cwxpf1ExTQ6_g-12" value="break" style="whiteSpace=wrap;html=1;strokeWidth=2;" vertex="1" parent="1">
          <mxGeometry x="400" y="440" width="120" height="60" as="geometry" />
        </mxCell>
        <mxCell id="Rh83Ei1Cwxpf1ExTQ6_g-21" value="" style="edgeStyle=orthogonalEdgeStyle;rounded=0;orthogonalLoop=1;jettySize=auto;html=1;" edge="1" parent="1" source="Rh83Ei1Cwxpf1ExTQ6_g-18" target="Rh83Ei1Cwxpf1ExTQ6_g-20">
          <mxGeometry relative="1" as="geometry" />
        </mxCell>
        <mxCell id="Rh83Ei1Cwxpf1ExTQ6_g-18" value="Цикл А" style="strokeWidth=2;html=1;shape=mxgraph.flowchart.loop_limit;whiteSpace=wrap;direction=west;" vertex="1" parent="1">
          <mxGeometry x="200" y="610" width="150" height="40" as="geometry" />
        </mxCell>
        <mxCell id="Rh83Ei1Cwxpf1ExTQ6_g-19" style="edgeStyle=orthogonalEdgeStyle;rounded=0;orthogonalLoop=1;jettySize=auto;html=1;entryX=0.5;entryY=1;entryDx=0;entryDy=0;entryPerimeter=0;" edge="1" parent="1" source="Rh83Ei1Cwxpf1ExTQ6_g-12" target="Rh83Ei1Cwxpf1ExTQ6_g-18">
          <mxGeometry relative="1" as="geometry">
            <Array as="points">
              <mxPoint x="460" y="540" />
              <mxPoint x="275" y="540" />
            </Array>
          </mxGeometry>
        </mxCell>
        <mxCell id="Rh83Ei1Cwxpf1ExTQ6_g-26" style="edgeStyle=orthogonalEdgeStyle;rounded=0;orthogonalLoop=1;jettySize=auto;html=1;exitX=1;exitY=0.5;exitDx=0;exitDy=0;entryX=0.5;entryY=0;entryDx=0;entryDy=0;" edge="1" parent="1" source="Rh83Ei1Cwxpf1ExTQ6_g-20" target="Rh83Ei1Cwxpf1ExTQ6_g-24">
          <mxGeometry relative="1" as="geometry" />
        </mxCell>
        <mxCell id="Rh83Ei1Cwxpf1ExTQ6_g-29" value="" style="edgeStyle=orthogonalEdgeStyle;rounded=0;orthogonalLoop=1;jettySize=auto;html=1;" edge="1" parent="1" source="Rh83Ei1Cwxpf1ExTQ6_g-20" target="Rh83Ei1Cwxpf1ExTQ6_g-28">
          <mxGeometry relative="1" as="geometry" />
        </mxCell>
        <mxCell id="Rh83Ei1Cwxpf1ExTQ6_g-20" value="Current = null" style="rhombus;whiteSpace=wrap;html=1;strokeWidth=2;" vertex="1" parent="1">
          <mxGeometry x="197.5" y="710" width="155" height="80" as="geometry" />
        </mxCell>
        <mxCell id="Rh83Ei1Cwxpf1ExTQ6_g-22" value="да" style="text;html=1;align=center;verticalAlign=middle;resizable=0;points=[];autosize=1;strokeColor=none;fillColor=none;" vertex="1" parent="1">
          <mxGeometry x="360" y="328" width="40" height="30" as="geometry" />
        </mxCell>
        <mxCell id="Rh83Ei1Cwxpf1ExTQ6_g-23" value="нет" style="text;html=1;align=center;verticalAlign=middle;resizable=0;points=[];autosize=1;strokeColor=none;fillColor=none;" vertex="1" parent="1">
          <mxGeometry x="280" y="388" width="40" height="30" as="geometry" />
        </mxCell>
        <mxCell id="Rh83Ei1Cwxpf1ExTQ6_g-52" style="edgeStyle=orthogonalEdgeStyle;rounded=0;orthogonalLoop=1;jettySize=auto;html=1;exitX=0.5;exitY=1;exitDx=0;exitDy=0;" edge="1" parent="1" source="Rh83Ei1Cwxpf1ExTQ6_g-24">
          <mxGeometry relative="1" as="geometry">
            <mxPoint x="280" y="1350" as="targetPoint" />
            <Array as="points">
              <mxPoint x="540" y="1350" />
            </Array>
          </mxGeometry>
        </mxCell>
        <mxCell id="Rh83Ei1Cwxpf1ExTQ6_g-24" value="Клиент не найден" style="whiteSpace=wrap;html=1;strokeWidth=2;" vertex="1" parent="1">
          <mxGeometry x="480" y="800" width="120" height="60" as="geometry" />
        </mxCell>
        <mxCell id="Rh83Ei1Cwxpf1ExTQ6_g-27" value="нет" style="text;html=1;align=center;verticalAlign=middle;resizable=0;points=[];autosize=1;strokeColor=none;fillColor=none;" vertex="1" parent="1">
          <mxGeometry x="340" y="718" width="40" height="30" as="geometry" />
        </mxCell>
        <mxCell id="Rh83Ei1Cwxpf1ExTQ6_g-31" value="" style="edgeStyle=orthogonalEdgeStyle;rounded=0;orthogonalLoop=1;jettySize=auto;html=1;" edge="1" parent="1" source="Rh83Ei1Cwxpf1ExTQ6_g-28" target="Rh83Ei1Cwxpf1ExTQ6_g-30">
          <mxGeometry relative="1" as="geometry" />
        </mxCell>
        <mxCell id="Rh83Ei1Cwxpf1ExTQ6_g-33" value="" style="edgeStyle=orthogonalEdgeStyle;rounded=0;orthogonalLoop=1;jettySize=auto;html=1;" edge="1" parent="1" source="Rh83Ei1Cwxpf1ExTQ6_g-28" target="Rh83Ei1Cwxpf1ExTQ6_g-32">
          <mxGeometry relative="1" as="geometry" />
        </mxCell>
        <mxCell id="Rh83Ei1Cwxpf1ExTQ6_g-28" value="current-&amp;gt;prev != null" style="rhombus;whiteSpace=wrap;html=1;strokeWidth=2;" vertex="1" parent="1">
          <mxGeometry x="207.5" y="870" width="135" height="80" as="geometry" />
        </mxCell>
        <mxCell id="Rh83Ei1Cwxpf1ExTQ6_g-43" value="" style="edgeStyle=orthogonalEdgeStyle;rounded=0;orthogonalLoop=1;jettySize=auto;html=1;" edge="1" parent="1" source="Rh83Ei1Cwxpf1ExTQ6_g-30" target="Rh83Ei1Cwxpf1ExTQ6_g-42">
          <mxGeometry relative="1" as="geometry" />
        </mxCell>
        <mxCell id="Rh83Ei1Cwxpf1ExTQ6_g-30" value="Обновление указателя next предыдущего узла" style="whiteSpace=wrap;html=1;strokeWidth=2;" vertex="1" parent="1">
          <mxGeometry x="215" y="1000" width="120" height="60" as="geometry" />
        </mxCell>
        <mxCell id="Rh83Ei1Cwxpf1ExTQ6_g-44" style="edgeStyle=orthogonalEdgeStyle;rounded=0;orthogonalLoop=1;jettySize=auto;html=1;" edge="1" parent="1" source="Rh83Ei1Cwxpf1ExTQ6_g-32">
          <mxGeometry relative="1" as="geometry">
            <mxPoint x="280" y="1110" as="targetPoint" />
            <Array as="points">
              <mxPoint x="430" y="1110" />
            </Array>
          </mxGeometry>
        </mxCell>
        <mxCell id="Rh83Ei1Cwxpf1ExTQ6_g-32" value="Обновление next узла если был удален первый узел" style="whiteSpace=wrap;html=1;strokeWidth=2;" vertex="1" parent="1">
          <mxGeometry x="370" y="1000" width="120" height="60" as="geometry" />
        </mxCell>
        <mxCell id="Rh83Ei1Cwxpf1ExTQ6_g-34" value="да" style="text;html=1;align=center;verticalAlign=middle;resizable=0;points=[];autosize=1;strokeColor=none;fillColor=none;" vertex="1" parent="1">
          <mxGeometry x="270" y="778" width="40" height="30" as="geometry" />
        </mxCell>
        <mxCell id="Rh83Ei1Cwxpf1ExTQ6_g-35" value="да" style="text;html=1;align=center;verticalAlign=middle;resizable=0;points=[];autosize=1;strokeColor=none;fillColor=none;" vertex="1" parent="1">
          <mxGeometry x="270" y="948" width="40" height="30" as="geometry" />
        </mxCell>
        <mxCell id="Rh83Ei1Cwxpf1ExTQ6_g-36" value="нет" style="text;html=1;align=center;verticalAlign=middle;resizable=0;points=[];autosize=1;strokeColor=none;fillColor=none;" vertex="1" parent="1">
          <mxGeometry x="330" y="878" width="40" height="30" as="geometry" />
        </mxCell>
        <mxCell id="Rh83Ei1Cwxpf1ExTQ6_g-46" value="" style="edgeStyle=orthogonalEdgeStyle;rounded=0;orthogonalLoop=1;jettySize=auto;html=1;" edge="1" parent="1" source="Rh83Ei1Cwxpf1ExTQ6_g-42" target="Rh83Ei1Cwxpf1ExTQ6_g-45">
          <mxGeometry relative="1" as="geometry" />
        </mxCell>
        <mxCell id="Rh83Ei1Cwxpf1ExTQ6_g-48" style="edgeStyle=orthogonalEdgeStyle;rounded=0;orthogonalLoop=1;jettySize=auto;html=1;" edge="1" parent="1" source="Rh83Ei1Cwxpf1ExTQ6_g-42">
          <mxGeometry relative="1" as="geometry">
            <mxPoint x="275" y="1350" as="targetPoint" />
            <Array as="points">
              <mxPoint x="390" y="1180" />
              <mxPoint x="390" y="1350" />
              <mxPoint x="280" y="1350" />
            </Array>
          </mxGeometry>
        </mxCell>
        <mxCell id="Rh83Ei1Cwxpf1ExTQ6_g-42" value="current-&amp;gt;next != null" style="rhombus;whiteSpace=wrap;html=1;strokeWidth=2;" vertex="1" parent="1">
          <mxGeometry x="207.5" y="1140" width="135" height="80" as="geometry" />
        </mxCell>
        <mxCell id="Rh83Ei1Cwxpf1ExTQ6_g-47" value="" style="edgeStyle=orthogonalEdgeStyle;rounded=0;orthogonalLoop=1;jettySize=auto;html=1;" edge="1" parent="1" source="Rh83Ei1Cwxpf1ExTQ6_g-45" target="Rh83Ei1Cwxpf1ExTQ6_g-2">
          <mxGeometry relative="1" as="geometry" />
        </mxCell>
        <mxCell id="Rh83Ei1Cwxpf1ExTQ6_g-45" value="Обновление указателя prev следующего узла" style="whiteSpace=wrap;html=1;strokeWidth=2;" vertex="1" parent="1">
          <mxGeometry x="215" y="1260" width="120" height="60" as="geometry" />
        </mxCell>
        <mxCell id="Rh83Ei1Cwxpf1ExTQ6_g-49" value="да" style="text;html=1;align=center;verticalAlign=middle;resizable=0;points=[];autosize=1;strokeColor=none;fillColor=none;" vertex="1" parent="1">
          <mxGeometry x="280" y="1210" width="40" height="30" as="geometry" />
        </mxCell>
        <mxCell id="Rh83Ei1Cwxpf1ExTQ6_g-50" value="нет" style="text;html=1;align=center;verticalAlign=middle;resizable=0;points=[];autosize=1;strokeColor=none;fillColor=none;" vertex="1" parent="1">
          <mxGeometry x="330" y="1148" width="40" height="30" as="geometry" />
        </mxCell>
      </root>
    </mxGraphModel>
  </diagram>
</mxfile>
